# xmcd
#
# Track frame offsets: 
#        182
#        14740
#        35602
#        48350
#        62770
#        78810
#        92315
#        107605
#        119865
#        132080
#        148442
#        161557
#        187657
#        204560
#
# Disc length: 2972 seconds
#
# Revision: 2
# Processed by: cddbd v1.5.1PL2 Copyright (c) Steve Scherf et al.
# Submitted via: ExactAudioCopy v0.95b3
#
DISCID=bf0b9a0e
DTITLE=Jimmy Tittle - It's in the attitude
DYEAR=1995
DGENRE=Country
TTITLE0=It's in the attitude
TTITLE1='til I gain control again
TTITLE2=Blistered
TTITLE3=It's just my soul
TTITLE4=I threw away the rose
TTITLE5=She's beaten the cheatin' out of me
TTITLE6=You'll believe in love
TTITLE7=A place to grow
TTITLE8=Luther's boogie
TTITLE9=I want to feel the pain
TTITLE10=Money, heart and soul
TTITLE11=Always a stranger
TTITLE12='til the end
TTITLE13=love got in the way
EXTD=(c)1995 Dixiefrog\nKatalog: 3428065400394
EXTT0=
EXTT1=
EXTT2=
EXTT3=
EXTT4=
EXTT5=
EXTT6=
EXTT7=
EXTT8=
EXTT9=
EXTT10=
EXTT11=
EXTT12=
EXTT13=
PLAYORDER=
